<mxfile host="app.diagrams.net" modified="2024-07-15T09:49:04.502Z" agent="Mozilla/5.0 (Windows NT 10.0; Win64; x64) AppleWebKit/537.36 (KHTML, like Gecko) Chrome/126.0.0.0 Safari/537.36" etag="D3-1CsUtxvmFIs5uyhZT" version="24.6.5" type="device">
  <diagram name="Page-1" id="IyVFc7qLOiWu3YuaCPPt">
    <mxGraphModel dx="2152" dy="780" grid="1" gridSize="10" guides="1" tooltips="1" connect="1" arrows="1" fold="1" page="1" pageScale="1" pageWidth="850" pageHeight="1100" math="0" shadow="0">
      <root>
        <mxCell id="0" />
        <mxCell id="1" parent="0" />
        <mxCell id="ZUBSSfxszrNEVLq0Uzy9-1" value="" style="whiteSpace=wrap;html=1;aspect=fixed;" parent="1" vertex="1">
          <mxGeometry x="-790" y="690" width="120" height="120" as="geometry" />
        </mxCell>
        <mxCell id="ZUBSSfxszrNEVLq0Uzy9-5" value="AWS Cloud" style="swimlane;whiteSpace=wrap;html=1;" parent="1" vertex="1">
          <mxGeometry x="-290" y="480" width="245" height="160" as="geometry" />
        </mxCell>
        <mxCell id="ZUBSSfxszrNEVLq0Uzy9-9" value="" style="image;aspect=fixed;perimeter=ellipsePerimeter;html=1;align=center;shadow=0;dashed=0;spacingTop=3;image=img/lib/active_directory/router.svg;" parent="ZUBSSfxszrNEVLq0Uzy9-5" vertex="1">
          <mxGeometry x="165" y="40" width="50" height="38" as="geometry" />
        </mxCell>
        <mxCell id="ZUBSSfxszrNEVLq0Uzy9-11" value="Amazon EC2 prod" style="text;html=1;align=center;verticalAlign=middle;resizable=0;points=[];autosize=1;strokeColor=none;fillColor=none;" parent="ZUBSSfxszrNEVLq0Uzy9-5" vertex="1">
          <mxGeometry x="-5" y="44" width="120" height="30" as="geometry" />
        </mxCell>
        <mxCell id="ZUBSSfxszrNEVLq0Uzy9-12" value="" style="image;aspect=fixed;perimeter=ellipsePerimeter;html=1;align=center;shadow=0;dashed=0;spacingTop=3;image=img/lib/active_directory/router.svg;" parent="ZUBSSfxszrNEVLq0Uzy9-5" vertex="1">
          <mxGeometry x="165" y="110" width="50" height="38" as="geometry" />
        </mxCell>
        <mxCell id="ZUBSSfxszrNEVLq0Uzy9-13" value="Amazon EC2 qa" style="text;html=1;align=center;verticalAlign=middle;resizable=0;points=[];autosize=1;strokeColor=none;fillColor=none;" parent="ZUBSSfxszrNEVLq0Uzy9-5" vertex="1">
          <mxGeometry x="-5" y="118" width="110" height="30" as="geometry" />
        </mxCell>
        <mxCell id="ZUBSSfxszrNEVLq0Uzy9-8" value="" style="shape=actor;whiteSpace=wrap;html=1;" parent="1" vertex="1">
          <mxGeometry x="-780" y="700" width="30" height="40" as="geometry" />
        </mxCell>
        <mxCell id="ZUBSSfxszrNEVLq0Uzy9-21" value="" style="image;aspect=fixed;perimeter=ellipsePerimeter;html=1;align=center;shadow=0;dashed=0;spacingTop=3;image=img/lib/active_directory/folder_open.svg;" parent="1" vertex="1">
          <mxGeometry x="-610" y="80" width="64.4" height="70" as="geometry" />
        </mxCell>
        <mxCell id="ZUBSSfxszrNEVLq0Uzy9-25" value="DevOps team&amp;nbsp;" style="text;html=1;align=center;verticalAlign=middle;resizable=0;points=[];autosize=1;strokeColor=none;fillColor=none;" parent="1" vertex="1">
          <mxGeometry x="-787.2" y="740" width="100" height="30" as="geometry" />
        </mxCell>
        <mxCell id="SJhDoxv-UmGifvt-m18Y-3" value="" style="shape=actor;whiteSpace=wrap;html=1;" vertex="1" parent="1">
          <mxGeometry x="-705" y="700" width="30" height="40" as="geometry" />
        </mxCell>
        <mxCell id="SJhDoxv-UmGifvt-m18Y-5" value="" style="shape=actor;whiteSpace=wrap;html=1;" vertex="1" parent="1">
          <mxGeometry x="-745" y="690" width="30" height="40" as="geometry" />
        </mxCell>
        <mxCell id="SJhDoxv-UmGifvt-m18Y-8" value="Ansible" style="swimlane;fontStyle=0;childLayout=stackLayout;horizontal=1;startSize=30;horizontalStack=0;resizeParent=1;resizeParentMax=0;resizeLast=0;collapsible=1;marginBottom=0;whiteSpace=wrap;html=1;" vertex="1" parent="1">
          <mxGeometry x="-526.8000000000001" y="80" width="140" height="120" as="geometry" />
        </mxCell>
        <mxCell id="SJhDoxv-UmGifvt-m18Y-9" value="Config-file.yaml" style="text;strokeColor=none;fillColor=none;align=left;verticalAlign=middle;spacingLeft=4;spacingRight=4;overflow=hidden;points=[[0,0.5],[1,0.5]];portConstraint=eastwest;rotatable=0;whiteSpace=wrap;html=1;" vertex="1" parent="SJhDoxv-UmGifvt-m18Y-8">
          <mxGeometry y="30" width="140" height="30" as="geometry" />
        </mxCell>
        <mxCell id="SJhDoxv-UmGifvt-m18Y-10" value="Playbook.yaml" style="text;strokeColor=none;fillColor=none;align=left;verticalAlign=middle;spacingLeft=4;spacingRight=4;overflow=hidden;points=[[0,0.5],[1,0.5]];portConstraint=eastwest;rotatable=0;whiteSpace=wrap;html=1;" vertex="1" parent="SJhDoxv-UmGifvt-m18Y-8">
          <mxGeometry y="60" width="140" height="30" as="geometry" />
        </mxCell>
        <mxCell id="SJhDoxv-UmGifvt-m18Y-11" value="Inventory-static.yaml" style="text;strokeColor=none;fillColor=none;align=left;verticalAlign=middle;spacingLeft=4;spacingRight=4;overflow=hidden;points=[[0,0.5],[1,0.5]];portConstraint=eastwest;rotatable=0;whiteSpace=wrap;html=1;" vertex="1" parent="SJhDoxv-UmGifvt-m18Y-8">
          <mxGeometry y="90" width="140" height="30" as="geometry" />
        </mxCell>
        <mxCell id="SJhDoxv-UmGifvt-m18Y-12" value="" style="shape=flexArrow;endArrow=classic;startArrow=classic;html=1;rounded=0;" edge="1" parent="1">
          <mxGeometry width="100" height="100" relative="1" as="geometry">
            <mxPoint x="-360" y="139.5" as="sourcePoint" />
            <mxPoint x="-220" y="139.5" as="targetPoint" />
            <Array as="points">
              <mxPoint x="-290" y="139.5" />
            </Array>
          </mxGeometry>
        </mxCell>
        <mxCell id="SJhDoxv-UmGifvt-m18Y-14" value="" style="image;aspect=fixed;perimeter=ellipsePerimeter;html=1;align=center;shadow=0;dashed=0;spacingTop=3;image=img/lib/active_directory/folder_open.svg;" vertex="1" parent="1">
          <mxGeometry x="-610" y="280" width="64.4" height="70" as="geometry" />
        </mxCell>
        <mxCell id="SJhDoxv-UmGifvt-m18Y-16" value="Ansible" style="swimlane;fontStyle=0;childLayout=stackLayout;horizontal=1;startSize=30;horizontalStack=0;resizeParent=1;resizeParentMax=0;resizeLast=0;collapsible=1;marginBottom=0;whiteSpace=wrap;html=1;" vertex="1" parent="1">
          <mxGeometry x="-520" y="280" width="140" height="120" as="geometry" />
        </mxCell>
        <mxCell id="SJhDoxv-UmGifvt-m18Y-17" value="Dynamic inventory&amp;gt;aws_ec2.yml" style="text;strokeColor=none;fillColor=none;align=left;verticalAlign=middle;spacingLeft=4;spacingRight=4;overflow=hidden;points=[[0,0.5],[1,0.5]];portConstraint=eastwest;rotatable=0;whiteSpace=wrap;html=1;" vertex="1" parent="SJhDoxv-UmGifvt-m18Y-16">
          <mxGeometry y="30" width="140" height="30" as="geometry" />
        </mxCell>
        <mxCell id="SJhDoxv-UmGifvt-m18Y-18" value="EC2 Full access&amp;gt; Role&amp;lt;" style="text;strokeColor=none;fillColor=none;align=left;verticalAlign=middle;spacingLeft=4;spacingRight=4;overflow=hidden;points=[[0,0.5],[1,0.5]];portConstraint=eastwest;rotatable=0;whiteSpace=wrap;html=1;" vertex="1" parent="SJhDoxv-UmGifvt-m18Y-16">
          <mxGeometry y="60" width="140" height="30" as="geometry" />
        </mxCell>
        <mxCell id="SJhDoxv-UmGifvt-m18Y-19" value="Vault decrypt" style="text;strokeColor=none;fillColor=none;align=left;verticalAlign=middle;spacingLeft=4;spacingRight=4;overflow=hidden;points=[[0,0.5],[1,0.5]];portConstraint=eastwest;rotatable=0;whiteSpace=wrap;html=1;" vertex="1" parent="SJhDoxv-UmGifvt-m18Y-16">
          <mxGeometry y="90" width="140" height="30" as="geometry" />
        </mxCell>
        <mxCell id="SJhDoxv-UmGifvt-m18Y-20" value="" style="shape=flexArrow;endArrow=classic;startArrow=classic;html=1;rounded=0;" edge="1" parent="1">
          <mxGeometry width="100" height="100" relative="1" as="geometry">
            <mxPoint x="-360" y="339.5" as="sourcePoint" />
            <mxPoint x="-220" y="339.5" as="targetPoint" />
            <Array as="points">
              <mxPoint x="-290" y="339.5" />
            </Array>
          </mxGeometry>
        </mxCell>
        <mxCell id="SJhDoxv-UmGifvt-m18Y-21" value="" style="outlineConnect=0;dashed=0;verticalLabelPosition=bottom;verticalAlign=top;align=center;html=1;shape=mxgraph.aws3.ami;fillColor=#F58534;gradientColor=none;" vertex="1" parent="1">
          <mxGeometry x="-160" y="100" width="60" height="63" as="geometry" />
        </mxCell>
        <mxCell id="SJhDoxv-UmGifvt-m18Y-22" value="" style="outlineConnect=0;dashed=0;verticalLabelPosition=bottom;verticalAlign=top;align=center;html=1;shape=mxgraph.aws3.ec2;fillColor=#F58534;gradientColor=none;" vertex="1" parent="1">
          <mxGeometry x="-160" y="280" width="76.5" height="93" as="geometry" />
        </mxCell>
        <mxCell id="SJhDoxv-UmGifvt-m18Y-23" value="Amazon web services&amp;nbsp;" style="rounded=1;whiteSpace=wrap;html=1;" vertex="1" parent="1">
          <mxGeometry x="-820" y="40" width="120" height="60" as="geometry" />
        </mxCell>
        <mxCell id="SJhDoxv-UmGifvt-m18Y-24" value="2) Launch instance from base AMI" style="text;html=1;align=center;verticalAlign=middle;resizable=0;points=[];autosize=1;strokeColor=none;fillColor=none;" vertex="1" parent="1">
          <mxGeometry x="-380" y="80" width="210" height="30" as="geometry" />
        </mxCell>
        <mxCell id="SJhDoxv-UmGifvt-m18Y-25" value="3) Customize instance" style="text;html=1;align=center;verticalAlign=middle;resizable=0;points=[];autosize=1;strokeColor=none;fillColor=none;" vertex="1" parent="1">
          <mxGeometry x="-345" y="280" width="140" height="30" as="geometry" />
        </mxCell>
        <mxCell id="SJhDoxv-UmGifvt-m18Y-26" value="" style="image;html=1;image=img/lib/clip_art/computers/Monitor_Tower_128x128.png" vertex="1" parent="1">
          <mxGeometry x="-730" y="200" width="80" height="80" as="geometry" />
        </mxCell>
        <mxCell id="SJhDoxv-UmGifvt-m18Y-27" value="1) Run playbook based on the environment" style="text;html=1;align=center;verticalAlign=middle;resizable=0;points=[];autosize=1;strokeColor=none;fillColor=none;" vertex="1" parent="1">
          <mxGeometry x="-815" y="260" width="250" height="30" as="geometry" />
        </mxCell>
        <mxCell id="SJhDoxv-UmGifvt-m18Y-28" value="" style="shape=flexArrow;endArrow=classic;startArrow=classic;html=1;rounded=0;entryX=0.5;entryY=1;entryDx=0;entryDy=0;" edge="1" parent="1" target="SJhDoxv-UmGifvt-m18Y-26">
          <mxGeometry width="100" height="100" relative="1" as="geometry">
            <mxPoint x="-730" y="690" as="sourcePoint" />
            <mxPoint x="-660" y="340" as="targetPoint" />
            <Array as="points" />
          </mxGeometry>
        </mxCell>
        <mxCell id="SJhDoxv-UmGifvt-m18Y-29" value="" style="shape=flexArrow;endArrow=classic;startArrow=classic;html=1;rounded=0;entryX=0.047;entryY=0.943;entryDx=0;entryDy=0;entryPerimeter=0;exitX=0.125;exitY=0;exitDx=0;exitDy=0;exitPerimeter=0;" edge="1" parent="1">
          <mxGeometry width="100" height="100" relative="1" as="geometry">
            <mxPoint x="-690" y="200" as="sourcePoint" />
            <mxPoint x="-576.9731999999999" y="146.01" as="targetPoint" />
            <Array as="points">
              <mxPoint x="-652.2" y="180" />
            </Array>
          </mxGeometry>
        </mxCell>
        <mxCell id="SJhDoxv-UmGifvt-m18Y-30" value="" style="shape=singleArrow;direction=south;whiteSpace=wrap;html=1;" vertex="1" parent="1">
          <mxGeometry x="-160" y="180" width="60" height="60" as="geometry" />
        </mxCell>
        <mxCell id="SJhDoxv-UmGifvt-m18Y-31" value="" style="shape=singleArrow;direction=south;whiteSpace=wrap;html=1;" vertex="1" parent="1">
          <mxGeometry x="-151.75" y="410" width="60" height="60" as="geometry" />
        </mxCell>
        <mxCell id="SJhDoxv-UmGifvt-m18Y-32" value="" style="endArrow=none;dashed=1;html=1;dashPattern=1 3;strokeWidth=2;rounded=0;exitX=1;exitY=0;exitDx=0;exitDy=0;" edge="1" parent="1" source="SJhDoxv-UmGifvt-m18Y-23">
          <mxGeometry width="50" height="50" relative="1" as="geometry">
            <mxPoint x="-570" y="80" as="sourcePoint" />
            <mxPoint x="-20" y="40" as="targetPoint" />
            <Array as="points">
              <mxPoint x="-380" y="40" />
            </Array>
          </mxGeometry>
        </mxCell>
        <mxCell id="SJhDoxv-UmGifvt-m18Y-33" value="" style="endArrow=none;dashed=1;html=1;dashPattern=1 3;strokeWidth=2;rounded=0;" edge="1" parent="1">
          <mxGeometry width="50" height="50" relative="1" as="geometry">
            <mxPoint x="-30" y="660" as="sourcePoint" />
            <mxPoint x="-30" y="40" as="targetPoint" />
          </mxGeometry>
        </mxCell>
        <mxCell id="SJhDoxv-UmGifvt-m18Y-34" value="" style="endArrow=none;dashed=1;html=1;dashPattern=1 3;strokeWidth=2;rounded=0;" edge="1" parent="1">
          <mxGeometry width="50" height="50" relative="1" as="geometry">
            <mxPoint x="-640" y="660" as="sourcePoint" />
            <mxPoint x="-30" y="660" as="targetPoint" />
          </mxGeometry>
        </mxCell>
        <mxCell id="SJhDoxv-UmGifvt-m18Y-36" value="" style="endArrow=none;dashed=1;html=1;rounded=0;" edge="1" parent="1">
          <mxGeometry width="50" height="50" relative="1" as="geometry">
            <mxPoint x="-820" y="660" as="sourcePoint" />
            <mxPoint x="-820" y="100" as="targetPoint" />
          </mxGeometry>
        </mxCell>
        <mxCell id="SJhDoxv-UmGifvt-m18Y-37" value="" style="endArrow=none;dashed=1;html=1;rounded=0;" edge="1" parent="1">
          <mxGeometry width="50" height="50" relative="1" as="geometry">
            <mxPoint x="-815" y="660" as="sourcePoint" />
            <mxPoint x="-635" y="660" as="targetPoint" />
          </mxGeometry>
        </mxCell>
      </root>
    </mxGraphModel>
  </diagram>
</mxfile>
